<svg xmlns="http://www.w3.org/2000/svg" xmlns:xlink="http://www.w3.org/1999/xlink" xml:space="preserve" width="136.53741" height="80.410622" viewBox="0 0 136.53742 80.41062"><metadata><rdf:RDF xmlns:rdf="http://www.w3.org/1999/02/22-rdf-syntax-ns#" xmlns:dc="http://purl.org/dc/elements/1.1/"><rdf:Description><dc:creator>RealFaviconGenerator</dc:creator><dc:source>https://realfavicongenerator.net</dc:source></rdf:Description></rdf:RDF></metadata><g transform="matrix(1.33333 0 0 -1.33333 -.00016307 159.13315)">
    <defs>
      <path id="a" d="M-17.066999-19.892h136.536V139.24h-136.536z"></path>
    </defs>
    <clipPath id="b">
      <use xlink:href="#a" width="100%" height="100%" overflow="visible"></use>
    </clipPath>
    <g clip-path="url(#b)">
      <path fill="none" stroke="#006499" stroke-linejoin="round" stroke-miterlimit="2.83500004" stroke-width="5.66900015" d="M80.6523 109.3095c4.405-4.405 6.879-10.378 6.879-16.607 0-6.229-2.474-12.203-6.879-16.607m8.726-8.036c13.611 13.61 13.611 35.676 0 49.286m-67.629-8.036c-4.405-4.405-6.879-10.378-6.879-16.607 0-6.229 2.474-12.203 6.879-16.607m-8.725-8.036c-13.61 13.61-13.61 35.676 0 49.286"></path>
      <path fill="#970000" d="m73.8027 81.6439-22.602-22.602-22.601 22.602c-6.241 6.241-6.241 16.36 0 22.601s16.36 6.241 22.601 0c6.242 6.241 16.361 6.241 22.602 0s6.241-16.36 0-22.601"></path>
      <path fill="#fff" d="M53.2559 97.0111c1.419-.198 1.287-.924.264-2.838l-1.749-3.3-.165.165-1.617 3.333c-.891 1.881-1.023 2.442.363 2.64.198.198.198.891 0 1.089-.957-.033-1.98-.066-3.003-.066-.99 0-1.98.033-2.937.066-.198-.198-.165-.891.033-1.089 1.419-.198 1.683-.66 2.772-3.003l2.772-5.907-3.663-7.491h-.165l-6.039 13.761c-.825 1.881-.726 2.409 1.353 2.64.198.198.198.891 0 1.089-1.32-.033-2.673-.066-3.663-.066-1.122 0-2.277.033-3.432.066-.198-.198-.165-.891.033-1.089 1.683-.132 1.947-.66 2.937-3.003l7.194-16.896c.198-.495.429-.759.759-.759.363 0 .594.264.792.759l4.851 9.57 4.455-9.57c.166-.495.429-.759.759-.759.363 0 .561.264.792.759l7.788 16.83c.726 1.551 1.386 2.871 3.267 3.069.198.198.198.891 0 1.089-1.056-.033-2.146-.066-2.905-.066-.759 0-2.045.033-3.266.066-.198-.198-.198-.891 0-1.089 2.145-.165 2.178-1.056 1.419-2.838l-6.27-13.563h-.166l-4.223 8.712 2.41 4.62c.824 1.551 1.55 2.805 3.266 3.069.198.198.198.891 0 1.089-.826-.033-1.649-.066-2.409-.066-.76 0-1.716.033-2.607.066-.198-.198-.198-.891 0-1.089"></path>
    </g>
  </g></svg>